 http://www.torrentday.com - Your Key To The Scene.

 
http://www.torrentday.com :  Clean RAR Scene Releases!


Enjoy =)

...................................NFO:....................................

.SPRiNTER proudly presents...



The.Virginian.1946.iNTERNAL.DVDRip.XviD-SPRiNTER 
http://www.imdb.com/title/tt0039082/
Subtitles: English, Francais, Deutch, Italiano, Norsk, Svenska, Dansk, Finish, Espanol, 
	   Nederlands, Portugues, Hebrew, Arabic, Russian, Turkish, Greek
Date: 2010.02


Director: Stuart Gilmore
Genre: Western | Romance
Plot: Arriving at Medicine Bow, eastern schoolteacher Molly Woods meets two cowboys,
irresponsible Steve and the "Virginian," who gets off on the wrong foot with her. To
add to his troubles, the Virginian finds that his old pal Steve is mixed up with
black-hatted Trampas and his rustlers...then finds himself at the head of a posse
after said rustlers; and Molly hates the violent side of frontier life.

Cast:

 Joel McCrea ...  The Virginian 
 Brian Donlevy ...  Trampas 
 Sonny Tufts ...  Steve Andrews 
 Barbara Britton ...  Molly Wood 
 Fay Bainter ...  Mrs. Taylor 
 Tom Tully ...  Nebraska 
 Henry O'Neill ...  Mr. Taylor 
 Bill Edwards ...  Sam Bennett 
 William Frawley ...  Honey Wiggen 
 Paul Guilfoyle ...  Shorty 
 Marc Lawrence ...  Pete 
 Vince Barnett ...  Baldy 

Release notes:
Enjoy!

Stats:
Format                           : AVI
Format/Info                      : Audio Video Interleave
File size                        : 700 MiB
Duration                         : 1h 23mn
Overall bit rate                 : 1 174 Kbps
Writing application              : VirtualDubMod 1.5.10.2 (build 2542/release)
Writing library                  : VirtualDubMod build 2542/release

Video
ID                               : 0
Format                           : MPEG-4 Visual
Format profile                   : AdvancedSimple@L5
Format settings, BVOP            : Yes
Format settings, QPel            : No
Format settings, GMC             : No warppoints
Format settings, Matrix          : Default (H.263)
Codec ID                         : XVID
Codec ID/Hint                    : XviD
Duration                         : 1h 23mn
Bit rate                         : 1 087 Kbps
Width                            : 592 pixels
Height                           : 432 pixels
Display aspect ratio             : 1.370
Frame rate                       : 25.000 fps
Resolution                       : 24 bits
Colorimetry                      : 4:2:0
Scan type                        : Progressive
Bits/(Pixel*Frame)               : 0.170
Stream size                      : 648 MiB (93%)
Writing library                  : XviD 1.2.1 (UTC 2008-12-04)

Audio
ID                               : 1
Format                           : MPEG Audio
Format version                   : Version 1
Format profile                   : Layer 3
Codec ID                         : 55
Codec ID/Hint                    : MP3
Duration                         : 1h 23mn
Bit rate mode                    : Variable
Bit rate                         : 73.7 Kbps
Minimum bit rate                 : 32.0 Kbps
Channel(s)                       : 1 channel
Sampling rate                    : 48.0 KHz
Resolution                       : 16 bits
Stream size                      : 44.0 MiB (6%)
Alignment                        : Aligned on interleaves
Interleave, duration             : 24 ms (0.60 video frame)
Interleave, preload duration     : 250 ms
Writing library                  : LAME3.95 
Encoding settings                : -m m -V 4 -q 3 -lowpass 18 --vbr-old -b 32